<svg width="238" height="64" viewBox="0 0 238 64" fill="none" xmlns="http://www.w3.org/2000/svg">
<g clip-path="url(#clip0_5446_1198)">
<path d="M6.79093 43.919C8.67443 43.1465 11.7204 43.7057 13.7658 44.2354C13.4347 44.0147 13.2287 43.8381 13.2287 43.8381C7.5561 39.6297 8.73329 36.1937 9.01288 34.2955C9.29246 32.3973 10.7419 31.4555 12.4709 30.2783C14.1999 29.1085 15.5904 29.5499 17.599 29.778C19.6076 29.9988 20.8878 31.5585 20.8878 31.5585C20.8878 31.5585 22.5064 32.3973 24.515 32.8976C26.5236 33.3979 26.8547 33.6775 28.1938 34.6781C29.5328 35.6787 29.4739 36.6278 29.4739 36.6278C29.4739 36.6278 28.9736 36.9074 30.4231 36.2967C31.8725 35.6861 32.7627 33.5671 34.4402 30.5579C35.9706 27.7989 36.6254 27.2839 38.9136 26.6217L20.4464 8.01469C20.4464 8.01469 20.3875 7.99262 20.3654 8.01469L0.0147149 28.5199C0.0147149 28.5199 0 28.542 0 28.5567V49.187C0 49.187 0.0220724 49.2458 0.0588596 49.2458H6.62906C5.79031 46.8694 5.38565 44.4929 6.79093 43.919Z" fill="#F68C2A"/>
<path d="M28.5243 41.9912C28.2741 41.5645 27.7812 41.6013 27.1484 41.7779C27.2294 41.7999 27.3029 41.822 27.3765 41.8441C27.8989 42.0354 28.3403 42.1678 28.7156 42.2635C28.642 42.1678 28.5831 42.0722 28.5243 41.9839V41.9912Z" fill="#363534"/>
<path d="M42.7983 27.6587C35.8749 25.6207 35.3084 29.9101 34.4035 31.3816C32.3581 34.6924 30.9896 36.8187 29.1355 37.2822C27.6052 37.6648 26.244 36.9511 25.2729 36.2816C25.2434 36.2595 25.2214 36.2522 25.1846 36.2375L24.9859 36.0903C24.9491 36.0683 24.9271 36.0241 24.9271 35.9873C24.9271 35.9653 24.9344 35.9358 24.9491 35.9064C24.9933 35.8475 25.0742 35.8402 25.1331 35.877C25.2214 35.9432 25.3244 36.002 25.42 36.0683C26.5531 36.8702 27.5978 37.1498 28.6205 36.8996C28.7971 36.8555 28.9737 36.7893 29.1502 36.7157C28.3336 35.1118 26.6046 33.9272 25.2949 33.6109C23.7131 33.2283 22.7051 32.9046 21.859 32.3454C22.5506 33.3239 22.9479 34.2068 23.2569 35.2516C23.9412 37.5839 24.5298 39.5925 28.6426 39.4674C30.916 39.4012 32.7848 40.4533 33.6309 42.2779C34.5727 44.3086 34.1459 46.5821 32.3434 48.5906L31.4678 49.4809C31.4163 49.525 31.3354 49.525 31.2839 49.4662C31.2324 49.4147 31.2398 49.3337 31.2913 49.2822C33.2263 47.4649 33.8664 45.1841 32.9908 43.1829C32.1447 41.2553 30.1361 40.1222 27.8627 40.2841C23.8455 40.5784 22.9847 38.0842 22.1459 35.6783C21.3955 33.5079 20.1153 30.9622 17.577 30.3294C15.436 29.7997 13.0521 30.1234 11.1318 31.823C9.49113 33.2798 9.00554 35.4429 9.16741 37.4515C9.32191 39.3644 9.95465 40.5342 10.8523 41.6967C10.8964 41.7482 10.889 41.8291 10.8375 41.8733C10.786 41.9174 10.7051 41.9174 10.661 41.8733C10.6389 41.8512 8.79218 39.85 8.39487 36.6936C8.08586 34.2142 9.15269 31.9334 10.9038 30.587C12.3385 29.4907 14.3765 28.6225 17.2974 29.1081C19.9166 29.5422 21.2336 31.2123 21.2336 31.2123C21.5058 31.3521 23.1907 32.1982 25.6775 32.8015C27.1932 33.1694 29.1135 34.4938 29.8639 36.3111C31.2692 35.3693 32.6745 33.4343 34.1239 30.4324C36.3973 25.7163 38.5236 26.1798 42.9749 27.5336L42.791 27.6513L42.7983 27.6587Z" fill="#363534"/>
<path d="M29.4599 41.9103C27.1938 40.4314 24.0963 41.5277 21.2563 42.9403C14.4433 46.3394 14.046 42.8741 8.80751 42.8741C6.00433 42.8741 5.69531 45.1328 5.69531 46.001C5.69531 46.8692 5.92339 48.2818 6.37956 49.3192C6.37956 49.3192 6.37956 49.3192 6.37956 49.3266C6.40899 49.3928 6.48256 49.4222 6.54878 49.3928C6.61499 49.3634 6.64442 49.2898 6.62235 49.2236C6.05583 47.6859 5.87189 44.3824 8.94731 44.3824C13.5751 44.3824 14.848 47.7889 21.6831 44.2352C24.1699 42.9403 26.5169 41.9618 28.5843 43.3597C30.0264 44.3309 30.718 46.6337 29.4967 49.2236C29.4672 49.2751 29.4893 49.3486 29.5335 49.3854C29.585 49.4222 29.6512 49.4222 29.7027 49.3781L29.7983 49.2971C29.7983 49.2971 29.8204 49.2751 29.8278 49.2604C31.4979 45.9642 32.0276 43.5878 29.4525 41.9029" fill="#363534"/>
<path d="M45.6523 50.1363V29.1455H51.4868C52.7523 29.1455 53.7823 29.3515 54.5843 29.7562C55.3863 30.1608 55.9822 30.7347 56.3574 31.4705C56.7327 32.2062 56.924 33.0817 56.924 34.0971C56.924 34.9947 56.7989 35.7746 56.5414 36.4515C56.2839 37.121 55.9528 37.6875 55.5334 38.129C55.114 38.5778 54.6211 38.9236 54.0546 39.1664V39.2914C54.6652 39.4533 55.217 39.7329 55.7173 40.1155C56.2176 40.5054 56.6076 41.0278 56.8945 41.69C57.1815 42.3521 57.3213 43.2203 57.3213 44.3019C57.3213 45.7071 57.0638 46.8402 56.5561 47.6936C56.0484 48.5471 55.2832 49.1725 54.2679 49.5551C53.2526 49.945 51.9871 50.1363 50.4788 50.1363H45.6523ZM48.6468 38.2172H51.1189C51.8105 38.2172 52.355 38.0701 52.7523 37.7758C53.1496 37.4815 53.4365 37.0695 53.6205 36.5545C53.8044 36.0394 53.8927 35.4508 53.8927 34.796C53.8927 33.8396 53.6646 33.1038 53.2232 32.5814C52.7744 32.0591 52.0828 31.8015 51.1484 31.8015H48.6395V38.2172H48.6468ZM48.6468 47.4729H51.2146C52.355 47.4729 53.1496 47.2007 53.5984 46.6489C54.0472 46.0971 54.2679 45.2436 54.2679 44.0811C54.2679 43.3895 54.1796 42.7936 53.9957 42.2933C53.8118 41.793 53.5101 41.4104 53.076 41.1455C52.6493 40.8806 52.0607 40.7482 51.3029 40.7482H48.6468V47.4729Z" fill="#363534"/>
<path d="M64.4438 50.4969C63.2225 50.4969 62.2366 50.2173 61.4788 49.6582C60.721 49.099 60.1839 48.194 59.8601 46.9506C59.5364 45.7072 59.3672 44.0886 59.3672 42.0947C59.3672 40.1009 59.5438 38.3645 59.9043 37.1432C60.2574 35.9218 60.824 35.0316 61.5965 34.4871C62.369 33.9353 63.3696 33.6631 64.591 33.6631C65.6725 33.6631 66.5628 33.8912 67.2617 34.3473C67.968 34.8035 68.4904 35.5907 68.8509 36.7017C69.2041 37.8127 69.388 39.343 69.388 41.3001V42.676H62.1483C62.1483 43.9414 62.2072 44.9788 62.3322 45.8102C62.4573 46.6343 62.678 47.2449 63.0018 47.6275C63.3255 48.0175 63.8037 48.2088 64.4365 48.2088C64.7602 48.2088 65.0545 48.1425 65.3194 48.0101C65.5842 47.8777 65.8123 47.6717 66.0036 47.3994C66.1949 47.1272 66.342 46.7593 66.4451 46.2958C66.5481 45.8323 66.6069 45.2731 66.629 44.6036H69.3145C69.2924 45.5822 69.1747 46.443 68.9613 47.1861C68.7479 47.9292 68.4389 48.5472 68.0269 49.0328C67.6222 49.5184 67.1072 49.8863 66.4966 50.1364C65.8859 50.3792 65.1943 50.5043 64.4218 50.5043L64.4438 50.4969ZM62.1483 40.9396H66.5775C66.5775 40.042 66.5481 39.2842 66.4892 38.6662C66.4303 38.0481 66.3273 37.5331 66.1802 37.1211C66.0404 36.7164 65.827 36.4148 65.5548 36.2382C65.2826 36.0543 64.9294 35.966 64.5027 35.966C63.8699 35.966 63.3844 36.1646 63.0533 36.5619C62.7222 36.9592 62.4794 37.5331 62.347 38.2762C62.2145 39.0193 62.1483 39.9096 62.1483 40.947V40.9396Z" fill="#363534"/>
<path d="M74.8335 50.4965C74.1419 50.4965 73.6121 50.3494 73.2443 50.0551C72.8764 49.7608 72.6336 49.3414 72.5085 48.8043C72.3834 48.2672 72.3246 47.6492 72.3246 46.9576V36.3261H71.1621V34.0379H72.3834L72.8396 29.4248H75.0101V34.0379H76.8126V36.3261H75.0101V46.8693C75.0101 47.3402 75.0616 47.6786 75.1646 47.892C75.2676 48.1054 75.4736 48.2157 75.7752 48.2157H76.8126V50.0477C76.5846 50.1287 76.3565 50.2022 76.1063 50.2758C75.8635 50.3494 75.6354 50.4009 75.4221 50.445C75.2087 50.4892 75.0101 50.5039 74.8261 50.5039L74.8335 50.4965Z" fill="#363534"/>
<path d="M81.7339 50.4965C81.0423 50.4965 80.5125 50.3494 80.1447 50.0551C79.7768 49.7608 79.534 49.3414 79.4089 48.8043C79.2838 48.2672 79.225 47.6492 79.225 46.9576V36.3261H78.0625V34.0379H79.2838L79.74 29.4248H81.9104V34.0379H83.713V36.3261H81.9104V46.8693C81.9104 47.3402 81.962 47.6786 82.065 47.892C82.168 48.1054 82.374 48.2157 82.6756 48.2157H83.713V50.0477C83.4849 50.1287 83.2569 50.2022 83.0067 50.2758C82.7639 50.3494 82.5358 50.4009 82.3225 50.445C82.1091 50.4892 81.9104 50.5039 81.7265 50.5039L81.7339 50.4965Z" fill="#363534"/>
<path d="M90.5708 50.4969C89.3494 50.4969 88.3635 50.2173 87.6057 49.6582C86.8479 49.099 86.3108 48.194 85.9871 46.9506C85.6634 45.7072 85.4941 44.0886 85.4941 42.0947C85.4941 40.1009 85.6707 38.3645 86.0312 37.1432C86.3844 35.9218 86.9509 35.0316 87.7235 34.4871C88.496 33.9353 89.4966 33.6631 90.7179 33.6631C91.7995 33.6631 92.6897 33.8912 93.3887 34.3473C94.095 34.8035 94.6174 35.5907 94.9779 36.7017C95.3311 37.8127 95.515 39.343 95.515 41.3001V42.676H88.2753C88.2753 43.9414 88.3341 44.9788 88.4592 45.8102C88.5843 46.6343 88.805 47.2449 89.1287 47.6275C89.4525 48.0175 89.9307 48.2088 90.5634 48.2088C90.8872 48.2088 91.1815 48.1425 91.4463 48.0101C91.7112 47.8777 91.9393 47.6717 92.1306 47.3994C92.3219 47.1272 92.469 46.7593 92.572 46.2958C92.675 45.8323 92.7339 45.2731 92.7559 44.6036H95.4414C95.4193 45.5822 95.3016 46.443 95.0883 47.1861C94.8749 47.9292 94.5659 48.5472 94.1539 49.0328C93.7492 49.5184 93.2342 49.8863 92.6235 50.1364C92.0128 50.3792 91.3212 50.5043 90.5487 50.5043L90.5708 50.4969ZM88.2753 40.9396H92.7044C92.7044 40.042 92.675 39.2842 92.6162 38.6662C92.5573 38.0481 92.4543 37.5331 92.3071 37.1211C92.1673 36.7164 91.954 36.4148 91.6818 36.2382C91.4095 36.0543 91.0564 35.966 90.6296 35.966C89.9969 35.966 89.5113 36.1646 89.1802 36.5619C88.8491 36.9592 88.6063 37.5331 88.4739 38.2762C88.3415 39.0193 88.2753 39.9096 88.2753 40.947V40.9396Z" fill="#363534"/>
<path d="M98.2652 50.1359V34.0304H100.465L100.678 36.2303H100.803C101.009 35.6417 101.238 35.1635 101.488 34.7956C101.745 34.4277 102.025 34.1482 102.341 33.9569C102.658 33.7656 102.996 33.6699 103.364 33.6699C103.504 33.6699 103.636 33.6773 103.761 33.6994C103.886 33.7214 104.004 33.7582 104.129 33.8244V36.7306H103.151C102.841 36.7306 102.562 36.8116 102.297 36.9734C102.032 37.1353 101.797 37.3781 101.591 37.7092C101.385 38.0329 101.23 38.467 101.12 39.0041C101.009 39.5412 100.951 40.1886 100.951 40.9464V50.1433H98.2578L98.2652 50.1359Z" fill="#363534"/>
<path d="M114.643 50.4971C113.789 50.4971 113.002 50.4088 112.289 50.2248C111.575 50.0409 110.964 49.7172 110.457 49.2463C109.949 48.7754 109.552 48.1353 109.265 47.3186C108.978 46.502 108.838 45.4646 108.838 44.1991V43.6178H111.803V44.2285C111.803 45.104 111.891 45.8104 112.06 46.3548C112.237 46.8919 112.531 47.2819 112.951 47.5173C113.37 47.7527 113.9 47.8704 114.555 47.8704C114.945 47.8704 115.283 47.8337 115.577 47.7454C115.872 47.6644 116.136 47.532 116.372 47.3481C116.607 47.1641 116.799 46.9434 116.953 46.6785C117.108 46.4137 117.218 46.0973 117.292 45.7294C117.365 45.3616 117.402 44.9348 117.402 44.4492C117.402 43.8386 117.284 43.3162 117.049 42.8895C116.813 42.4627 116.497 42.1022 116.1 41.8079C115.702 41.5136 115.261 41.2487 114.783 41.0133C114.304 40.7779 113.797 40.5424 113.267 40.307C112.737 40.0716 112.23 39.8067 111.737 39.5124C111.244 39.2181 110.802 38.8502 110.405 38.4088C110.008 37.9747 109.691 37.4449 109.456 36.8343C109.22 36.2236 109.103 35.4731 109.103 34.5755C109.103 33.5602 109.25 32.6773 109.544 31.9489C109.839 31.2132 110.251 30.6172 110.766 30.1464C111.281 29.6755 111.877 29.3297 112.539 29.109C113.201 28.8882 113.907 28.7705 114.665 28.7705C115.496 28.7705 116.254 28.8809 116.924 29.0942C117.593 29.3076 118.175 29.6387 118.653 30.0875C119.131 30.5363 119.499 31.1249 119.756 31.8459C120.014 32.567 120.139 33.4572 120.139 34.5167V35.0685H117.233V34.5461C117.233 33.8913 117.152 33.3321 116.99 32.8686C116.828 32.4051 116.571 32.0446 116.21 31.8018C115.85 31.559 115.357 31.4339 114.731 31.4339C114.26 31.4339 113.841 31.5222 113.466 31.6914C113.091 31.868 112.789 32.1623 112.568 32.5817C112.347 33.001 112.23 33.5528 112.23 34.2444C112.23 34.8772 112.347 35.3996 112.583 35.8189C112.818 36.2383 113.135 36.5915 113.532 36.8711C113.929 37.158 114.371 37.4155 114.864 37.6509C115.357 37.8864 115.857 38.1145 116.379 38.3352C116.902 38.5559 117.402 38.8208 117.895 39.1298C118.381 39.4388 118.829 39.8067 119.227 40.2481C119.624 40.6896 119.94 41.2193 120.176 41.8521C120.411 42.4848 120.529 43.25 120.529 44.1476C120.529 45.6559 120.286 46.8698 119.793 47.7969C119.308 48.7239 118.616 49.4082 117.733 49.8422C116.843 50.2763 115.82 50.4971 114.665 50.4971H114.643Z" fill="#363534"/>
<path d="M122.922 50.1365V28.0127H125.615V50.1365H122.922Z" fill="#363534"/>
<path d="M133.463 50.4969C132.242 50.4969 131.256 50.2173 130.498 49.6582C129.74 49.099 129.203 48.194 128.88 46.9506C128.556 45.7072 128.387 44.0886 128.387 42.0947C128.387 40.1009 128.563 38.3645 128.924 37.1432C129.277 35.9218 129.843 35.0316 130.616 34.4871C131.389 33.9353 132.389 33.6631 133.611 33.6631C134.692 33.6631 135.582 33.8912 136.281 34.3473C136.988 34.8035 137.51 35.5907 137.87 36.7017C138.224 37.8127 138.408 39.343 138.408 41.3001V42.676H131.168C131.168 43.9414 131.227 44.9788 131.352 45.8102C131.477 46.6343 131.698 47.2449 132.021 47.6275C132.345 48.0175 132.823 48.2088 133.456 48.2088C133.78 48.2088 134.074 48.1425 134.339 48.0101C134.604 47.8777 134.832 47.6717 135.023 47.3994C135.214 47.1272 135.362 46.7593 135.465 46.2958C135.568 45.8323 135.626 45.2731 135.649 44.6036H138.334C138.312 45.5822 138.194 46.443 137.981 47.1861C137.767 47.9292 137.458 48.5472 137.046 49.0328C136.642 49.5184 136.127 49.8863 135.516 50.1364C134.905 50.3792 134.214 50.5043 133.441 50.5043L133.463 50.4969ZM131.175 40.9396H135.604C135.604 40.042 135.575 39.2842 135.516 38.6662C135.457 38.0481 135.354 37.5331 135.207 37.1211C135.067 36.7164 134.854 36.4148 134.582 36.2382C134.309 36.0543 133.956 35.966 133.53 35.966C132.897 35.966 132.411 36.1646 132.08 36.5619C131.749 36.9592 131.506 37.5331 131.374 38.2762C131.241 39.0193 131.175 39.9096 131.175 40.947V40.9396Z" fill="#363534"/>
<path d="M145.78 50.4969C144.558 50.4969 143.573 50.2173 142.815 49.6582C142.057 49.099 141.52 48.194 141.196 46.9506C140.872 45.7072 140.703 44.0886 140.703 42.0947C140.703 40.1009 140.88 38.3645 141.24 37.1432C141.593 35.9218 142.16 35.0316 142.932 34.4871C143.705 33.9353 144.706 33.6631 145.927 33.6631C147.008 33.6631 147.899 33.8912 148.598 34.3473C149.304 34.8035 149.826 35.5907 150.187 36.7017C150.54 37.8127 150.724 39.343 150.724 41.3001V42.676H143.484C143.484 43.9414 143.543 44.9788 143.668 45.8102C143.793 46.6343 144.014 47.2449 144.338 47.6275C144.661 48.0175 145.14 48.2088 145.772 48.2088C146.096 48.2088 146.39 48.1425 146.655 48.0101C146.92 47.8777 147.148 47.6717 147.34 47.3994C147.531 47.1272 147.678 46.7593 147.781 46.2958C147.884 45.8323 147.943 45.2731 147.965 44.6036H150.65C150.628 45.5822 150.511 46.443 150.297 47.1861C150.084 47.9292 149.775 48.5472 149.363 49.0328C148.958 49.5184 148.443 49.8863 147.832 50.1364C147.222 50.3792 146.53 50.5043 145.758 50.5043L145.78 50.4969ZM143.484 40.9396H147.913C147.913 40.042 147.884 39.2842 147.825 38.6662C147.766 38.0481 147.663 37.5331 147.516 37.1211C147.376 36.7164 147.163 36.4148 146.891 36.2382C146.619 36.0543 146.265 35.966 145.839 35.966C145.206 35.966 144.72 36.1646 144.389 36.5619C144.058 36.9592 143.815 37.5331 143.683 38.2762C143.55 39.0193 143.484 39.9096 143.484 40.947V40.9396Z" fill="#363534"/>
<path d="M153.477 55.6913V34.031H155.647L155.831 36.0763H155.985C156.206 35.4215 156.574 34.8623 157.089 34.3841C157.604 33.9059 158.281 33.6631 159.134 33.6631C159.988 33.6631 160.775 33.9427 161.364 34.5018C161.952 35.061 162.394 35.966 162.681 37.202C162.968 38.4454 163.107 40.0935 163.107 42.1536C163.107 44.2137 162.968 45.7293 162.695 46.9506C162.423 48.172 161.996 49.0696 161.43 49.6435C160.856 50.21 160.128 50.4969 159.23 50.4969C158.759 50.4969 158.34 50.4086 157.965 50.2394C157.589 50.0628 157.266 49.82 157.001 49.489C156.736 49.1652 156.508 48.7753 156.331 48.3265H156.177V55.6913H153.484H153.477ZM158.34 47.9365C158.811 47.9365 159.186 47.76 159.473 47.3994C159.76 47.0389 159.966 46.4798 160.098 45.7219C160.231 44.9568 160.297 43.9414 160.297 42.6833V41.3663C160.297 40.145 160.238 39.1444 160.113 38.3719C159.988 37.5993 159.782 37.0254 159.488 36.6576C159.193 36.2897 158.803 36.1058 158.31 36.1058C157.781 36.1058 157.361 36.3044 157.045 36.7017C156.729 37.099 156.508 37.6876 156.375 38.4749C156.243 39.2621 156.177 40.2259 156.177 41.359V42.676C156.177 43.5956 156.221 44.3829 156.317 45.0451C156.405 45.7072 156.537 46.2517 156.714 46.6784C156.883 47.1051 157.111 47.4215 157.383 47.6275C157.656 47.8335 157.979 47.9365 158.347 47.9365H158.34Z" fill="#363534"/>
<path d="M170.619 50.1359V31.8305H165.947V29.1377H178.322V31.8305H173.651V50.1359H170.627H170.619Z" fill="#363534"/>
<path d="M183.208 50.4964C182.089 50.4964 181.155 50.2168 180.412 49.6577C179.669 49.0985 179.11 48.2009 178.734 46.9722C178.359 45.7435 178.168 44.1175 178.168 42.1016C178.168 40.0856 178.359 38.4302 178.734 37.1941C179.11 35.9654 179.669 35.0678 180.412 34.5087C181.155 33.9495 182.089 33.6699 183.208 33.6699C184.326 33.6699 185.261 33.9495 186.004 34.5087C186.747 35.0678 187.306 35.9654 187.681 37.1941C188.056 38.4302 188.248 40.0635 188.248 42.1016C188.248 44.1396 188.056 45.7435 187.681 46.9722C187.306 48.2009 186.747 49.0985 186.004 49.6577C185.261 50.2168 184.326 50.4964 183.208 50.4964ZM183.208 48.2082C183.76 48.2082 184.194 48.0317 184.525 47.6859C184.849 47.3401 185.091 46.7735 185.246 45.9937C185.4 45.2064 185.474 44.1616 185.474 42.8594V41.329C185.474 40.0047 185.4 38.9526 185.246 38.1653C185.091 37.3781 184.856 36.8189 184.525 36.4731C184.201 36.1273 183.76 35.9507 183.208 35.9507C182.656 35.9507 182.215 36.1273 181.876 36.4731C181.538 36.8189 181.302 37.3854 181.155 38.1653C181.015 38.9526 180.942 40.0047 180.942 41.329V42.8594C180.942 44.1616 181.015 45.2064 181.155 45.9937C181.295 46.7809 181.538 47.3401 181.876 47.6859C182.215 48.0317 182.656 48.2082 183.208 48.2082Z" fill="#363534"/>
<path d="M191.029 50.1364V34.031H193.288L193.472 36.1058H193.626C193.869 35.5172 194.164 35.0389 194.495 34.6858C194.826 34.3326 195.208 34.0677 195.628 33.9059C196.047 33.744 196.489 33.6631 196.959 33.6631C197.673 33.6631 198.262 33.8029 198.733 34.0751C199.203 34.3473 199.549 34.7888 199.785 35.3921C200.02 35.9954 200.138 36.7826 200.138 37.7612V50.1364H197.452V38.4675C197.452 38.1438 197.43 37.8421 197.393 37.5625C197.349 37.2903 197.276 37.0475 197.165 36.8415C197.055 36.6355 196.901 36.481 196.709 36.3706C196.518 36.2603 196.275 36.2014 195.988 36.2014C195.539 36.2014 195.142 36.3633 194.796 36.687C194.451 37.0107 194.186 37.511 194.002 38.1658C193.818 38.828 193.729 39.6668 193.729 40.6894V50.1291H191.037L191.029 50.1364Z" fill="#363534"/>
<path d="M203.25 31.0366V28.0127H205.943V31.0366H203.25ZM203.25 50.1365V34.0311H205.943V50.1365H203.25Z" fill="#363534"/>
<path d="M211.778 55.9996C211.005 55.9996 210.328 55.823 209.747 55.4625C209.166 55.102 208.71 54.6091 208.386 53.9837C208.062 53.3509 207.9 52.6593 207.9 51.9089C207.9 51.0701 208.092 50.327 208.482 49.6796C208.872 49.0247 209.401 48.5392 210.071 48.2154C209.563 47.9285 209.173 47.5606 208.908 47.0971C208.643 46.6409 208.511 46.148 208.511 45.6182C208.511 44.9855 208.695 44.419 209.063 43.904C209.431 43.3963 209.968 43.0358 210.682 42.8371C210.071 42.3883 209.615 41.8071 209.32 41.0934C209.026 40.3797 208.879 39.6146 208.879 38.8052C208.879 37.8267 209.048 36.9512 209.387 36.1786C209.725 35.4061 210.225 34.7954 210.902 34.3466C211.572 33.8978 212.411 33.6771 213.411 33.6771C213.838 33.6771 214.228 33.7213 214.574 33.8169C214.919 33.9052 215.228 34.0376 215.493 34.1995C215.861 33.9788 216.17 33.6256 216.428 33.1474C216.685 32.6691 216.847 32.0658 216.935 31.3301H219.135C219.113 32.0438 219.003 32.6618 218.797 33.1915C218.591 33.7213 218.319 34.148 217.973 34.4717C217.627 34.7954 217.237 35.0309 216.81 35.178C217.2 35.671 217.487 36.2154 217.678 36.8114C217.87 37.4147 217.965 38.0695 217.965 38.7832C217.965 39.7396 217.804 40.6005 217.472 41.3656C217.149 42.1308 216.67 42.7341 216.038 43.1829C215.405 43.6317 214.61 43.8525 213.654 43.8525H212.366C211.94 43.8525 211.594 43.9702 211.329 44.2056C211.064 44.4411 210.932 44.8016 210.932 45.2872C210.932 45.7728 211.094 46.1112 211.417 46.3393C211.741 46.5747 212.138 46.6924 212.609 46.6924H215.331C216.531 46.6924 217.443 47.1118 218.068 47.9579C218.686 48.804 219.003 49.8488 219.003 51.0922C219.003 51.9898 218.834 52.8065 218.495 53.5496C218.157 54.2927 217.671 54.8886 217.046 55.3374C216.413 55.7862 215.618 56.007 214.662 56.007H211.792L211.778 55.9996ZM212.543 53.9837H214.22C214.669 53.9837 215.052 53.8733 215.368 53.6452C215.685 53.4171 215.927 53.1228 216.104 52.7403C216.273 52.365 216.361 51.9383 216.361 51.4748C216.361 50.7243 216.2 50.121 215.876 49.6722C215.552 49.2234 215.089 49.0027 214.5 49.0027H212.543C211.932 49.0027 211.439 49.2381 211.064 49.709C210.689 50.1799 210.498 50.7685 210.498 51.4821C210.498 52.2326 210.682 52.8433 211.049 53.2994C211.417 53.7556 211.918 53.9837 212.55 53.9837H212.543ZM213.396 41.9101C214.051 41.9101 214.529 41.6526 214.846 41.1302C215.162 40.6078 215.317 39.8353 215.317 38.7905C215.317 37.7458 215.162 36.9585 214.846 36.4214C214.529 35.8843 214.044 35.6121 213.396 35.6121C212.749 35.6121 212.285 35.8843 211.962 36.4214C211.638 36.9585 211.469 37.7531 211.469 38.7905C211.469 39.4601 211.542 40.0339 211.697 40.5048C211.851 40.9757 212.065 41.3289 212.352 41.5569C212.639 41.7924 212.984 41.9101 213.389 41.9101H213.396Z" fill="#363534"/>
<path d="M220.818 50.1365V28.0127H223.511V35.8042H223.666C223.886 35.2966 224.159 34.8846 224.475 34.5829C224.791 34.2739 225.145 34.0458 225.542 33.8987C225.939 33.7441 226.373 33.6706 226.837 33.6706C227.506 33.6706 228.073 33.8104 228.529 34.0826C228.985 34.3548 229.331 34.7963 229.566 35.3996C229.802 36.0029 229.92 36.7901 229.92 37.7687V50.1439H227.234V38.475C227.234 38.1513 227.212 37.8496 227.175 37.57C227.131 37.2978 227.057 37.055 226.947 36.849C226.837 36.643 226.682 36.4885 226.491 36.3781C226.3 36.2678 226.057 36.2089 225.77 36.2089C225.321 36.2089 224.924 36.3708 224.578 36.6945C224.232 37.0182 223.967 37.5185 223.783 38.1733C223.599 38.8355 223.511 39.6743 223.511 40.6969V50.1365H220.818Z" fill="#363534"/>
<path d="M235.703 50.4965C235.011 50.4965 234.481 50.3494 234.113 50.0551C233.746 49.7608 233.503 49.3414 233.378 48.8043C233.253 48.2672 233.194 47.6492 233.194 46.9576V36.3261H232.031V34.0379H233.253L233.709 29.4248H235.879V34.0379H237.682V36.3261H235.879V46.8693C235.879 47.3402 235.931 47.6786 236.034 47.892C236.137 48.1054 236.343 48.2157 236.644 48.2157H237.682V50.0477C237.454 50.1287 237.226 50.2022 236.975 50.2758C236.733 50.3494 236.505 50.4009 236.291 50.445C236.078 50.4892 235.879 50.5039 235.695 50.5039L235.703 50.4965Z" fill="#363534"/>
<path d="M27.7231 26.04C28.1793 27.4747 28.7973 27.9235 30.21 27.8426C29.0769 28.7844 28.8415 29.5054 29.2609 30.7635C28.1057 30.0425 27.3479 30.0425 26.1854 30.7635C26.6048 29.5054 26.3694 28.7844 25.2363 27.8426C26.649 27.9162 27.267 27.4747 27.7231 26.04Z" fill="white"/>
<path d="M19.8879 15.0928C19.8879 16.9518 19.8879 16.9518 19.8879 15.0928C20.6089 17.3589 21.5801 18.0652 23.8094 17.9401C22.0215 19.4263 21.6537 20.5667 22.3085 22.5459C20.4838 21.4128 19.2846 21.4128 17.4599 22.5459C18.1221 20.5667 17.7468 19.4263 15.959 17.9401C18.1883 18.0578 19.1595 17.3589 19.8805 15.0928C19.8805 16.9518 19.8805 16.9518 19.8805 15.0928H19.8879Z" fill="white"/>
</g>
<defs>
<clipPath id="clip0_5446_1198">
<rect width="237.69" height="48" fill="white" transform="translate(0 8)"/>
</clipPath>
</defs>
</svg>
